<?xml version="1.0" encoding="iso-8859-1"?>
<!-- Uploaded to: SVG Repo, www.svgrepo.com, Generator: SVG Repo Mixer Tools -->
<svg fill="#000000" height="800px" width="800px" version="1.1" id="Layer_1" xmlns="http://www.w3.org/2000/svg" xmlns:xlink="http://www.w3.org/1999/xlink" 
	 viewBox="0 0 511.998 511.998" xml:space="preserve">
<g>
	<g>
		<path d="M502.985,314.681v-61.857c0-2.867-0.754-5.683-2.186-8.167l-44.834-77.733c-2.919-5.061-8.317-8.178-14.16-8.178h-69.402
			v-21.772c0-9.027-7.319-16.346-16.346-16.346H28.773c-9.027,0-16.346,7.318-16.346,16.346v176.45
			C5.296,315.181,0,321.601,0,329.275c0,9.027,7.319,16.346,16.346,16.346h47.047c4.337,25.924,26.919,45.75,54.056,45.75
			s49.719-19.825,54.056-45.75h194.863c4.337,25.924,26.919,45.75,54.056,45.75c27.137,0,49.719-19.825,54.056-45.75h21.171
			c9.027,0,16.346-7.318,16.346-16.346C512,322.887,508.327,317.37,502.985,314.681z M117.451,358.679
			c-12.203,0-22.13-9.927-22.13-22.13c0-12.203,9.927-22.13,22.13-22.13c12.203,0,22.13,9.927,22.13,22.13
			C139.58,348.752,129.653,358.679,117.451,358.679z M339.713,312.929H166.914c-8.84-18.437-27.689-31.201-49.464-31.201
			s-40.625,12.764-49.464,31.201H45.119v-159.61h294.594V312.929z M372.404,191.437h59.959l22.443,38.91h-82.402V191.437z
			 M420.426,358.679c-12.203,0-22.13-9.927-22.13-22.13c0-12.203,9.927-22.13,22.13-22.13c12.203,0,22.13,9.927,22.13,22.13
			C442.556,348.752,432.628,358.679,420.426,358.679z M470.293,312.929h-0.403c-8.84-18.437-27.689-31.201-49.464-31.201
			c-20.659,0-38.679,11.49-48.023,28.412v-47.103h97.89V312.929z"/>
	</g>
</g>
</svg>